<?xml version="1.0" encoding="utf-8"?>
<!-- Generator: Adobe Illustrator 22.1.0, SVG Export Plug-In . SVG Version: 6.00 Build 0)  -->
<svg version="1.1" id="Layer_1" xmlns="http://www.w3.org/2000/svg" xmlns:xlink="http://www.w3.org/1999/xlink" x="0px" y="0px"
	 viewBox="0 0 2816.4 763.6" style="enable-background:new 0 0 2816.4 763.6;" xml:space="preserve">
<style type="text/css">
	.st0{fill:#898989;}
</style>
<g>
	<path class="st0" d="M1416.5,562.4c-12.9,0-24.8,0-37.7,0c-0.1-3.2-0.2-6.3-0.2-9.5c0-90,0-180,0-270c0-16.3-1.4-32.4-6.2-48.1
		c-11.7-37.9-41.2-60.7-80.8-62.2c-16.6-0.7-33,0.5-49,5c-35.4,9.9-59.8,32.2-73.2,66.3c-6.9,17.6-10.6,35.9-10.7,54.9
		c-0.2,54.2-0.1,108.5-0.1,162.7c0,30.7,0,61.5,0,92.2c0,2.7,0,5.4,0,8.6c-12.1,0-23.4,0-35.3,0c0-140.5,0-280.7,0-421.8
		c5.7-0.1,11.3-0.2,17-0.3c5.7,0,11.4,0,18.1,0c0,26.4,0,52.2,0,78.1c0.6,0.2,1.1,0.4,1.7,0.5c1.2-1.9,2.5-3.8,3.7-5.8
		c21-36.3,51.8-60,92.8-68.9c33.4-7.3,66.2-3.5,97.2,11.4c23.7,11.3,41,29.1,51.4,53.3c0.7,1.6,1.5,3.1,2.8,5.9c2-2.8,3.6-4.8,5-7
		c20.1-30,47.1-50.7,82-60.7c29.7-8.5,59.8-8.8,89.5-0.4c37,10.4,62,34.2,75.6,70c7.3,19.4,10.6,39.6,10.6,60.2c0.1,93,0,186,0,279
		c0,2-0.2,3.9-0.4,6.4c-11.6,0-22.9,0-35.3,0c0-3.2,0-6.4,0-9.6c0-90.5,0-181,0-271.5c0-17.4-1.9-34.4-7.6-50.9
		c-13.3-38.5-46.6-60.6-87.3-58c-19.5,1.3-38.8,3.6-57.6,9.2c-35.3,10.6-55.6,34.6-62.6,70.4c-2.6,13.3-3.2,26.8-3.2,40.3
		c0,86.7,0,173.5-0.1,260.2C1416.5,555.7,1416.5,558.9,1416.5,562.4z"/>
	<path class="st0" d="M318.5,562.4c-12,0-23.1,0-35.1,0c0-26,0-51.8,0-77.6c-0.5-0.2-1-0.3-1.5-0.5c-1,1.2-2.1,2.3-3,3.7
		c-27.9,43.8-68.2,67.6-119.4,73.5c-29.6,3.4-58.9,1.7-87.4-7.7c-42.9-14.2-66-44.4-71.1-89.1c-1.9-16.1-1.1-32,2.4-47.6
		c6.2-28.1,22.2-49.3,46.9-64c18.3-10.9,38.3-16.8,59-20.8c22.9-4.5,46.1-5.4,69.2-7.4c21.9-1.9,43.8-3.6,65.2-9.1
		c5.8-1.5,11.5-3.6,16.9-6c11-4.9,17.9-13.5,20.5-25.2c3.2-14.5,3.9-29.4,1.8-44c-2.5-17.4-12.2-31.5-25.2-43.1
		c-11.6-10.4-25.2-17.3-40.1-21.1c-30.9-7.8-61.9-7.7-92.4,2.4c-38.2,12.6-60.1,39.6-67.4,78.8c-1.1,6.1-1.7,12.3-2.6,19.4
		c-11,1.3-22.1,2.6-34.1,4c0.4-6,0.6-11.4,1.2-16.7c1.9-17.8,6.1-34.9,13.9-51.1c16.5-34.1,44.2-54.8,80-65.1
		c26.7-7.7,54.1-8.9,81.7-7c17.5,1.2,34.8,3.6,51.4,9.7c7.7,2.8,15.4,6,22.5,10.1c27.7,15.8,42.4,40.1,45.6,71.5
		c0.8,7.9,1.1,16,1.1,23.9c0.1,98.7,0,197.5,0,296.2C318.5,555.6,318.5,558.8,318.5,562.4z M283.3,332.5
		c-10.6,4.1-19.9,8.3-29.6,11.2c-19.2,5.8-39.3,6.8-59.1,8.9c-23.6,2.5-47.2,4.6-70.7,7.8c-18.9,2.6-37.1,8-53.5,18.1
		C54.9,388,44,401.3,38.7,418.8c-3.6,11.6-4.3,23.6-3.5,35.6c1.6,24,11.8,43.6,31.5,57.8c14.7,10.6,31.6,15.7,49.4,18
		c20.5,2.7,40.9,1.4,61.2-1.7c20.4-3.2,39.9-9.1,57.4-20.6c31.5-20.7,48.3-49.7,48.6-87.7c0.2-26.5,0-53,0-79.4
		C283.3,338.1,283.3,335.4,283.3,332.5z"/>
	<path class="st0" d="M2070.5,360.3c-106.3,0-212.9,0-319.8,0c-0.4,1.8-0.9,2.9-0.8,4.1c0.6,36.3,8.1,70.9,26.6,102.5
		c21.6,36.8,53.6,58.7,95.9,64.4c30.6,4.1,60.4,0.5,88.4-13.1c35.1-17.1,56.7-45.6,68.3-82.3c2.1-6.6,3.6-13.5,5.5-20.6
		c11.1,0,22.2,0,34.2,0c-0.9,4.8-1.6,9.4-2.6,14c-3.4,16.2-8.6,31.8-15.9,46.7c-18.8,38-48.1,64-88.4,77.2
		c-37.9,12.4-76.6,14.1-115.3,4.7c-49.9-12.1-85.6-42.6-108.4-88.3c-13.8-27.7-20.8-57.2-22.4-88c-1.8-34.1-0.4-67.9,8.8-101.1
		c9.4-33.7,24.2-64.5,48.7-90c25.2-26.4,56.1-41.9,92.2-47.3c28.6-4.3,56.9-2.7,84.6,5.4c49,14.3,82.5,46.4,102.6,92.7
		c16,36.7,20.6,75.4,19.1,115.1c0,0.7-0.1,1.5-0.3,2.2C2071.5,358.8,2071.1,359.2,2070.5,360.3z M2036.9,335.4c0-3,0.1-5.4,0-7.9
		c-0.8-17.3-3.9-34.2-9.4-50.7c-12.8-38.7-35.5-69.8-71.7-89.6c-35.1-19.1-71.7-22.3-108.9-6.7c-25.2,10.5-44.2,28.7-59.6,50.9
		c-19.1,27.6-30.4,58.3-35.8,91.3c-0.7,4-0.9,8.2-1.4,12.6C1846.2,335.4,1941.3,335.4,2036.9,335.4z"/>
	<path class="st0" d="M732.4,0c12.1,0,23.2,0,35.4,0c0,24.4,0,48.3,0,72.2c0,24.2,0,48.5,0,72.7c0,24,0,48,0,72
		c0,24.2,0,48.5,0,72.7c0,23.9-0.1,47.7,0,71.6c0.6,0.2,1.1,0.5,1.7,0.7c2.6-2.2,5.2-4.4,7.7-6.6c80.4-69.9,160.8-139.7,241-209.7
		c4.7-4.1,9.3-5.8,15.4-5.6c11.7,0.4,23.5,0.1,35.2,0.1c1.9,0,3.8,0,5.7,0c0.2,0.5,0.4,0.9,0.5,1.4
		c-63.7,54.4-127.4,108.8-191.5,163.6c64.2,85.8,128,171,192.5,257.1c-3.3,0.2-5.4,0.4-7.5,0.4c-11,0-22-0.3-33,0.1
		c-5.4,0.2-8.6-1.7-11.7-6c-34.6-46.8-69.4-93.5-104.2-140.2c-19.1-25.7-38.2-51.3-57.3-77c-1.8-2.4-3.6-4.7-5.7-7.3
		c-2.2,1.7-4,2.9-5.6,4.4c-25.8,22.1-51.5,44.4-77.5,66.3c-4.2,3.6-5.9,7.2-5.9,12.8c0.2,45.5,0.1,91,0.1,136.5c0,3.2,0,6.4,0,10
		c-12.3,0-23.6,0-35.4,0C732.4,374.9,732.4,187.8,732.4,0z"/>
	<path class="st0" d="M673,274.1c-11.2,0-21.3,0-32.1,0c-0.6-6-1-11.9-1.8-17.8c-5-40.8-27.8-67.7-67.7-78.6
		c-35.1-9.6-70.2-8.4-104.9,2.4c-11.8,3.7-22.4,9.7-31.8,17.8c-30.3,25.8-30.4,78.5,7.4,101.6c16.4,10,34.3,16.2,52.9,20.4
		c27.7,6.4,55.6,12,83.4,18.2c18.3,4.1,36.2,9.7,53,18.1c35.6,17.8,53.3,46.9,55,86.3c0.5,13.1-0.2,26-3.8,38.6
		c-6.3,22.1-19.5,39.1-38.2,52.1c-19.3,13.3-41,20.6-63.7,24.9c-27.4,5.2-55.1,6.4-82.8,2.9c-32.1-4.1-61.7-14.5-86.6-36
		c-26.4-22.8-40.5-52.1-45.3-86.3c-1.1-7.6-1.4-15.3-2.1-23.6c11.8,0,22.6,0,34.3,0c0.5,3.2,1.1,6.5,1.4,9.9
		c4.3,43.3,30.7,88.6,90.8,102.8c38.2,9,76,5.2,112.6-8.9c10.8-4.1,20.5-10.3,28.8-18.5c15.5-15.2,21.2-34.1,20-55.3
		c-1.4-25.1-14.1-43.1-35.8-55.3c-17.2-9.6-35.9-15-54.9-19.2c-25.8-5.8-51.8-10.8-77.6-16.7c-19.8-4.5-38.9-11-56.6-21.2
		c-24.6-14.3-41.2-34.6-46.7-62.9c-4.4-22.5-3.5-44.8,6.2-66.1c7.8-17.2,20.6-29.9,36.7-39.5c16.5-9.9,34.5-15.8,53.3-19.2
		c33.5-6.1,67.1-6.6,100.5,1.1c10.6,2.4,21.2,6,31.1,10.5c36.8,16.9,57,46.4,63.5,85.9C673,252.9,673.6,263.1,673,274.1z"/>
	<path class="st0" d="M2153.5,562.4c-12.6,0-23.7,0-35.3,0c0-140.6,0-280.7,0-421.9c5.6-0.1,11.2-0.2,16.9-0.2c5.7,0,11.4,0,18.2,0
		c0.5,15.1,0.2,29.7,0.3,44.3c0.1,14.5,0,28.9,0,45.3c1.9-2.8,3-3.9,3.7-5.3c21.9-43.8,58-69,104.9-79.7c29.2-6.6,58.7-5.5,87.7,1.8
		c46.3,11.6,75.4,41.2,88.4,86.8c6.1,21.3,8,43.2,8,65.3c0,85.5,0,171,0,256.5c0,2.2-0.3,4.4-0.4,7c-11.7,0-23.1,0-35.3,0
		c0-3.2,0-6.1,0-9c0-84.2,0-168.5,0-252.7c0-18.3-1.4-36.4-6.1-54.2c-11.1-41.3-40-66.7-82.4-72.2c-25.8-3.4-51.4-2.1-76.6,4.5
		c-45.7,12.1-74.1,41.4-85.9,87c-4.1,16.1-5.8,32.4-5.9,49c-0.1,79.2,0,158.5,0,237.7C2153.5,555.6,2153.5,558.8,2153.5,562.4z"/>
	<path class="st0" d="M2676.9,279.5c-71.1,1.1-139.5-55.8-139.8-139.3c-0.3-74.9,57.3-139.8,139.1-140.1
		c83.1-0.3,140,65.7,140.3,139C2816.8,220.2,2750.7,280.3,2676.9,279.5z M2558,139.3c-0.8,63.1,50,118.5,117.3,119.4
		c64.2,0.8,119.8-49.8,120.1-118.1c0.4-68.1-54.2-118.7-117.4-119.4C2611.9,20.6,2558.2,73.6,2558,139.3z"/>
	<path class="st0" d="M848.6,676.1c-5.4,13.4-10.9,26.8-16.3,40.2c-5.2,13-10.4,25.9-15.7,38.9c-2.9,7.1-2.9,7.1-11.8,6.4
		c-11.4-28.2-23-56.7-34.5-85.2c-0.6,0.1-1.2,0.2-1.9,0.3c-0.2,28.2,1.7,56.4,0.3,84.9c-4.4,0-8,0-11.6,0
		c-1.5-5.6-1.8-98.9-0.2-107.9c4.4,0,9.1,0,13.8,0c3.7,0,4.2,3.2,5.1,5.6c4.7,11.8,9.3,23.7,13.9,35.6c5.4,13.7,10.8,27.4,16.2,41.1
		c0.7,1.8,1.6,3.6,2.5,5.6c3.8-1.2,3.9-4.5,4.9-7.1c9.4-23.7,18.6-47.4,28-71.1c4.5-11.3,2.2-9.7,14.3-9.7c7-0.1,7.2,0.2,7.2,7.1
		c0,25.2,0,50.5,0,75.7c0,6.7,0,13.5,0,20.2c0,1.4-0.3,2.9-0.6,4.8c-4.1,0-8,0-12.4,0c-2.1-28.5,1.2-56.8,0.6-85.1
		C849.8,676.3,849.2,676.2,848.6,676.1z"/>
	<path class="st0" d="M1860.2,653.6c0,36.7,0,72,0,107.9c-4,0-7.6,0-12.4,0c-1.3-28.2,0.2-56.5,0.6-85.5c-3.6,1.6-3.8,4.5-4.8,6.8
		c-9.7,23.8-19.3,47.6-29,71.5c-1,2.5-2.1,5-3.1,7.2c-8.7,0.9-8.8,0.9-11.6-6.2c-9.5-23.6-19-47.2-28.6-70.8
		c-1.1-2.6-2.3-5.2-4.4-7.6c-1.5,28.1,1.7,56.1-0.3,84.6c-4.3,0-8.1,0-12.6,0c-0.2-2.3-0.5-4.5-0.5-6.7c0-31.2,0-62.4,0-93.7
		c0-7.5,0.1-7.6,7.5-7.5c11.7,0.1,9.6-1.5,13.9,9.3c9.4,23.6,18.6,47.4,27.9,71.1c1,2.6,2.4,5.2,4.2,9.2c1.9-4.1,3.2-6.5,4.1-8.9
		c9.5-24.1,19-48.3,28.4-72.5c3.9-10.1,3.4-8,12.3-8.3C1854.5,653.5,1857,653.6,1860.2,653.6z"/>
	<path class="st0" d="M1158.5,761.9c0-36.3,0-71.7,0-106.8c0.8-0.6,1.2-1.1,1.6-1.1c15.2-0.6,30.5-1.5,45.6,1
		c12.9,2.1,21.1,10.3,23.1,22.3c1.6,9.5-1.5,17.2-9.4,22.9c-1.8,1.3-3.6,2.5-6,4.1c2,1,3.2,1.7,4.5,2.3
		c11.3,5.3,15.9,14.7,15.6,26.7c-0.3,12.1-5.9,21-17.5,25.5c-3.7,1.4-7.7,2.8-11.6,2.9C1189.4,762.1,1174.4,761.9,1158.5,761.9z
		 M1171.8,751.5c12.3,0.5,23.7,1.7,35-1c7.4-1.7,12.2-7.8,12.9-15.7c0.8-8.6-0.5-16.6-8.7-21.6c-1.7-1-3.7-2-5.6-2
		c-10.9-0.2-21.9-0.1-33.5-0.1C1171,724.8,1171.2,737.8,1171.8,751.5z M1171.6,664.9c0.1,11.8-1.2,23.3,0.8,35
		c2.4,0.1,4.2,0.3,5.9,0.3c7,0,14,0.2,20.9-0.2c9.6-0.6,15.7-6.7,16.5-16.1c0.8-9.5-4.5-17.7-14.2-18.8
		C1191.9,664.1,1182.2,664.9,1171.6,664.9z"/>
	<path class="st0" d="M364.8,761.4c0-35.8,0-71.2,0-106.5c0.9-0.5,1.6-1.1,2.2-1.1c14.5,0.3,29,0,43.3,1.2
		c13.7,1.1,21.8,9.2,24.3,21.6c2.1,10.2-1.2,18.1-9.7,24c-1.6,1.1-3.1,2.2-5.3,3.8c1.7,0.9,2.7,1.5,3.7,1.9
		c13,5.5,16.9,17.9,16.2,27.8c-1.1,14.1-8.4,22.9-21.7,26.2c-4.1,1-8.4,1.5-12.6,1.6c-12.5,0.2-25,0-37.5,0
		C367.1,762,366.4,761.7,364.8,761.4z M378,711.3c-1,12.7-0.6,24.8-0.3,37c0.1,2.8,2.4,3.6,4.8,3.6c8.5-0.1,17.1,0.6,25.4-0.5
		c16-2,23.2-16.8,15.7-31.3c-2.5-4.8-6.4-8.4-11.5-8.7C401.1,710.9,389.9,711.3,378,711.3z M377.9,664.4c-0.6,12.2-0.7,23.5,0,35.7
		c9.6,0,18.6,0.3,27.4-0.1c9.4-0.4,15.6-6.6,16.3-15.3c0.8-10.3-3.6-17.4-13.4-19.4C398.5,663.2,388.5,664.5,377.9,664.4z"/>
	<path class="st0" d="M2003.6,761.6c-5,0-8.6,0-12.7,0c0-35.8,0-71.1,0-106.5c9-3.5,12.5-2.5,17.2,5.1
		c14.4,23.1,28.8,46.2,43.2,69.3c1.6,2.5,3.2,4.9,5.2,7.8c2.9-2.9,2.1-6,2.1-8.7c0.1-21.7,0-43.5,0.1-65.2c0-2.9,0.3-5.8,0.5-9.3
		c4.2,0,7.8,0,11.4,0c1.6,5.4,2.1,97.9,0.5,107.2c-0.8,0.2-1.7,0.5-2.6,0.7c-7.1,1.1-11.6-1.2-15.6-7.9
		c-13.7-23.2-28.3-45.9-42.5-68.8c-1.4-2.2-3-4.4-4.9-7.3c-3,6.2-1.5,11.8-1.8,17.1c-0.2,5.5-0.1,11-0.1,16.5c0,5.5,0,11,0,16.5
		c0,5.5,0,11,0,16.5C2003.6,749.9,2003.6,755.4,2003.6,761.6z"/>
	<path class="st0" d="M1633.9,714.8c0,16.1,0,31.2,0,46.8c-4.5,0-8.1,0-11.6,0c-1.9-5.5-2.5-95.9-0.7-106.6c1.2-0.4,2.5-1.2,3.9-1.1
		c15,0.3,30.1-0.4,44.9,1.3c21.7,2.5,27.2,19.2,24.8,34.8c-0.9,6.1-4.6,11-9.6,14.7c-1.8,1.3-3.6,2.6-5.6,4c0.7,0.8,1.1,1.5,1.6,1.7
		c10.4,4.9,13.8,13.7,13.9,24.5c0.1,8.9-1,18,3.9,25.9c-0.6,0.5-0.7,0.8-0.9,0.8c-13.7,1.7-15.2,0.5-16-13.1
		c-0.3-5.2-0.1-10.5-0.6-15.7c-0.9-10.2-6.1-16.3-16-17.9C1655.7,713.4,1645.5,714.1,1633.9,714.8z M1635.1,664.8
		c-1.9,8.6-1.6,33.5,0.5,39.4c10.7-0.2,21.7,1.5,32.5-1.1c9.8-2.4,14.6-8.9,14.4-19.1c-0.2-10.2-5.9-18.1-15.6-19
		C1656.4,664.1,1645.6,664.8,1635.1,664.8z"/>
	<path class="st0" d="M732.9,707.9c-0.5,6.8-0.6,13.6-1.7,20.2c-3.8,22.9-22.4,36.7-47.2,35.4c-20-1.1-36.5-18.2-37.7-39.8
		c-0.6-10.5-0.6-21,0-31.5c1.2-22.3,17.9-39.2,39.9-40.1c26.3-1.1,41.9,16.7,44.9,35.6C732.2,694.4,732.3,701.2,732.9,707.9z
		 M718.6,708.2C718.6,708.2,718.6,708.2,718.6,708.2c0.1-4.7,0.2-9.5,0-14.2c-0.2-7.8-2.9-14.7-7.8-20.6
		c-12.8-15.5-37.2-13.4-46.7,4.3c-2.6,4.9-4.3,10.8-4.7,16.3c-0.8,9.4-0.7,19,0,28.5c0.4,5.3,2.2,10.8,4.5,15.7
		c9.6,19.8,36.9,18.2,47.2,4.4c4.3-5.8,7-12.1,7.4-19.3C718.8,718.2,718.6,713.2,718.6,708.2z"/>
	<path class="st0" d="M1600.4,664.2c-18.8,0-37,0-54.9,0c-1.9,5.9-2.3,25.9-0.8,36.4c15.8,1.8,31.9-0.2,48.5,1.1c0,2.9,0,5.5,0,9.2
		c-16,0-32.1,0-48.7,0c0,13.9,0,26.8,0,40.4c18.7,1.5,37.4-0.3,56.4,1c0,3.2,0,5.9,0,9c-23.3,0-46.3,0-69.3,0
		c-1.8-6.3-1.8-100.4,0-107.4c22.7,0,45.5,0,68.8,0C1600.4,657.3,1600.4,660.2,1600.4,664.2z"/>
	<path class="st0" d="M961.4,654.1c0,3.2,0,6.1,0,9.9c-18.5,0.9-36.9-0.1-56.2,0.6c-0.6,11.9-0.3,23.5-0.2,36
		c8.5,1.3,16.7,0.5,24.8,0.6c7.9,0.1,15.9,0,24.4,0c0,3.4,0,6,0,9.7c-16.1,0-32.1,0-48.7,0c0,13.9,0,26.8,0,40.4
		c9.6,1.3,19,0.5,28.4,0.6c9.2,0.1,18.3,0,28,0c0,3.7,0,6.3,0,9.5c-23.3,0-46.4,0-69.4,0c-1.8-6.4-1.8-100.6,0-107.4
		C915.2,654.1,938.1,654.1,961.4,654.1z"/>
	<path class="st0" d="M1257.8,654.1c22.5,0,45.1,0,68.4,0c0,3.1,0,6.2,0,10c-18.4,0-36.6,0-55.3,0c-0.4,2.9-0.9,5-0.9,7.2
		c-0.1,7.5-0.1,15,0,22.5c0.1,7,0.5,7.4,7.9,7.4c11,0.1,22,0,33,0c2.7,0,5.5,0,9.1,0c0.1,3.2,0.3,6,0.4,9.8c-16.8,0-32.9,0-49.2,0
		c-0.5,2.5-1.1,4.2-1.2,5.9c-0.1,9.5-0.2,19,0,28.5c0.1,5.7,0.9,6.5,6.6,6.5c13.7,0.1,27.5,0.1,41.2,0.1c3,0,5.9,0,9.6,0
		c0,3.5,0,6.3,0,9.5c-23.2,0-46.3,0-69.3,0C1256.6,755.8,1256.3,662.5,1257.8,654.1z"/>
	<path class="st0" d="M525.8,701.3c0,3.8,0,6.2,0,9.5c-16.2,0-32.1,0-48.5,0c-0.5,2.7-1.1,4.6-1.1,6.5c-0.1,9.2-0.1,18.5,0,27.7
		c0.1,6.3,0.6,6.9,6.8,7c14,0.1,28,0,42,0.1c2.7,0,5.4,0,8.7,0c0,3.7,0,6.4,0,9.6c-23.4,0-46.3,0-69.1,0
		c-1.7-5.4-2.2-97.6-0.6-106.9c5.7-1.6,61.9-1.7,68.7-0.1c0.2,1.4,0.5,2.8,0.5,4.3c0,1.4-0.3,2.9-0.7,5.3c-18.5,0-36.8,0-56,0
		c-0.1,5.9-0.2,10.8-0.2,15.8c0,5-0.1,10,0,15c0.2,5.5,0.6,6.1,6.1,6.1c11.2,0.1,22.5,0.1,33.7,0.1C519,701.3,522,701.3,525.8,701.3
		z"/>
	<path class="st0" d="M1029.1,762.1c-2.7,0-4.7,0-6.7,0c-1.7,0-3.4,0-5.8,0c0.4-2.2,0.5-3.8,1.1-5.3c12.4-32.3,24.9-64.6,37.5-96.9
		c2.4-6.3,2.6-6,8.4-6.3c4.4-0.2,6.2,1.8,7.6,5.5c4.3,11.7,8.8,23.3,13.2,35c7.6,20,15.3,40.1,22.9,60.1c0.9,2.3,1.5,4.6,2.5,7.6
		c-4.5,0-8.4,0-13,0c-2.5-6.7-5.1-13.7-7.7-20.6c-2.7-7.2-2.7-7.3-10-7.3c-11,0-22-0.1-32.9,0c-6.4,0-6.5,0.1-8.7,5.9
		C1034.7,746.8,1032,754.1,1029.1,762.1z M1082.2,722.1c-6.2-17-12-33.2-18-49.9c-4.6,5.4-18.6,43.4-18.7,49.9
		C1057.3,722.1,1069.1,722.1,1082.2,722.1z"/>
	<path class="st0" d="M1932.6,654.3c13.4,35.2,26.9,70.8,40.8,107.2c-4.8,0-8.6,0-13.3,0c-1.7-4.4-3.7-9.3-5.5-14.1
		c-6.1-16.2-2.2-13.4-19.8-13.7c-8.7-0.1-17.5,0.1-26.2-0.1c-4.1-0.1-6.4,1.4-7.7,5.4c-2.5,7.5-5.5,14.9-8.4,22.7
		c-4.2,0-8.1,0-12.7,0c0.5-2.1,0.8-4,1.5-5.7c12.4-32.1,24.8-64.3,37.3-96.4C1921.1,652.9,1921.3,652.9,1932.6,654.3z M1907.6,721.3
		c7.7,1.8,31.3,1.7,37.6-0.2c-5.8-16.3-11.2-32.7-17.9-48.5c-0.6,0-1.2,0-1.8,0C1919.5,688.8,1913.6,705,1907.6,721.3z"/>
	<path class="st0" d="M629.1,686.9c-4.5,0-7.9,0-11.8,0c-0.7-2.5-1.4-5.1-2.3-7.7c-3.2-9.9-10.2-15.2-20.3-16.2
		c-16-1.6-26.9,5.9-31.1,21.7c-1.2,4.3-1.9,8.9-1.8,13.3c0.1,10.5-0.1,21.1,1.6,31.3c1.9,11.1,8,20,19.8,23.1
		c16,4.2,29.1-3.6,33-19.6c0.3-1.2,0.5-2.4,0.8-4c3.7,0,7.4,0,11.5,0c1.5,6-0.6,11.4-3.4,16.3c-6.5,11.6-17.2,17.3-30.1,18.3
		c-26.6,2-45.7-15.5-46.3-42.3c-0.2-9.2-0.2-18.5,0.1-27.7c0.2-9.8,3.5-18.6,9.6-26.3c8.9-11.4,21-15.8,35-14.8
		c7.7,0.5,15.3,2.3,21.9,6.9C624.6,665.8,629.1,674.7,629.1,686.9z"/>
	<path class="st0" d="M1477.2,761.7c-4.4,0-8.1,0-12.5,0c-1.1-16.1-0.4-32.1-0.5-48c-0.1-16,0-32,0-48.7
		c-11.4-1.6-22.6,0.1-34.3-1.1c0-3.4,0-6.5,0-9.9c27.6,0,54.7,0,82.3,0c0,3.3,0,6.2,0,10.1c-11.2,0-22.3,0-34.4,0c0,4,0,6.9,0,9.8
		c0,26.2,0,52.5,0,78.7C1477.8,755.6,1477.4,758.5,1477.2,761.7z"/>
	<path class="st0" d="M1385.6,761.6c-4.8,0-8.4,0-12.9,0c0-32.2,0-64.1,0-96.5c-11.8-1.9-23,0.2-34.5-1.4c0-3.2,0-6,0-8.8
		c5.6-1.7,74.7-1.9,82.5-0.3c0,2.8,0,5.7,0,9.5c-11.3,0-22.5,0-34.5,0C1385.4,697,1386.3,728.9,1385.6,761.6z"/>
	<path class="st0" d="M2609.2,154.9c0-10.6,0-19.7,0-29.6c17.6,0,34.7,0,52.7,0c0-17.7,0-34.5,0-52.4c10.1-1.2,19.3-0.8,29.4-0.3
		c0,17.7,0,34.5,0,52.2c17.8,1.2,35-0.1,53,0.9c0.4,9.6,0.5,18.8-0.2,28.9c-17.4,0-34.3,0-52.3,0c-0.9,17.7,0.1,34.8-0.6,52.6
		c-9.6,1.1-18.7,0.6-28.8,0.3c-0.1-17.6-0.1-34.7-0.2-52.6C2644.1,154.9,2627,154.9,2609.2,154.9z"/>
</g>
</svg>
