<svg id="Layer_1" data-name="Layer 1" xmlns="http://www.w3.org/2000/svg" viewBox="0 0 570.69 58.51"><defs><style>.cls-1{fill:#898989;}</style></defs><title>GentlemansJournalLogo</title><path class="cls-1" d="M264.14,38.72V74.41h-7.07c-.37-6.23-.11-12.49-.16-18.74s0-12.32,0-18.48V18.1h9.88c2.5,8.49,3,17.64,5.77,27,1.78-9.31,3.43-17.94,5.13-26.89h10V74.38h-7.44V38.91l-.84,0c-1.74,11.77-3.48,23.53-5.24,35.5l-3.54.24c-1.83-12.09-3.64-24-5.44-35.91Z" transform="translate(-11.12 -16.87)"/><path class="cls-1" d="M172,48.27V18.13c1.43-.12,2.54-.27,3.64-.28s2.31.1,3.43.15c.81,3.69,1.08,48,.35,56-2.1,1.22-4.41.51-7.16.61Q168,59.07,163.66,43.58l-.58.05V74c-2.52,1.29-4.8.6-6.89.58a6.52,6.52,0,0,1-.54-.46.77.77,0,0,1-.24-.41q-.12-26.72-.2-53.43a17.55,17.55,0,0,1,.28-2.14h7.26l8.35,30.21Z" transform="translate(-11.12 -16.87)"/><path class="cls-1" d="M520,18h7.12c.14.14.26.26.36.38s.29.25.3.39c.07,1,.13,2,.13,3q0,25.72-.09,51.45c0,.29-.27.58-.56,1.17h-6.74c-2.82-10.14-5.68-20.46-8.55-30.78l-.76.12V74c-2.48,1.14-4.7.73-7.2.45V18.36c2.28-.91,4.53-.56,7.13-.23l8.26,30.21.6,0Z" transform="translate(-11.12 -16.87)"/><path class="cls-1" d="M323.43,18h7.15c2.79,10.09,5.62,20.26,8.44,30.44l.82-.1V18.16h6.62a3.77,3.77,0,0,1,.44.38,1,1,0,0,1,.21.42,18.86,18.86,0,0,1,.16,2V74.06c-2.07,1.28-4.39.38-7,.66-3.36-10.31-5.66-20.8-9.35-31V74.35h-7.14C322.92,70.59,322.62,27.51,323.43,18Z" transform="translate(-11.12 -16.87)"/><path class="cls-1" d="M47,18.4V40.86c1.38.11,2.33.23,3.27.25S51.85,41,53.13,41c.51-7.58,0-15,.31-22.76h8.33c.21,18.62.07,37.19.1,56.14H53.39V50.13H47.1c0,4.12-.1,8.22-.13,12.32,0,4,0,7.89,0,12H38.86V18.72C42.16,17.63,42.16,17.63,47,18.4Z" transform="translate(-11.12 -16.87)"/><path class="cls-1" d="M475.69,17.92c3.86,0,7.52-.16,11.15,0,4.59.27,7.73,2.84,9.52,7,3,6.94,1.83,16.09-2.92,22.43l4.95,26.71a16.88,16.88,0,0,1-8.1.25c-.76-4.14-1.41-8.21-2.28-12.23-.81-3.76-.68-7.8-3.12-12-1.83,4.51-.82,8.44-1,12.24s0,7.89,0,12c-1.33.16-2.13.32-2.93.34-1.63,0-3.27,0-4.8,0C475.14,70.69,474.83,27.52,475.69,17.92Zm8.39,25c4.72-1.63,6.16-4.12,5.86-9.33-.3-4.91-1.46-6.47-5.93-7.38A158.31,158.31,0,0,0,484.08,42.88Z" transform="translate(-11.12 -16.87)"/><path class="cls-1" d="M441.24,46c0,6,.12,12,0,18-.14,4.86-2.19,8.67-7,10.5a10.42,10.42,0,0,1-14-6.69,22.82,22.82,0,0,1-1-6.36c-.1-10.33-.08-20.65,0-31a21,21,0,0,1,.81-5.39,10.61,10.61,0,0,1,11.08-8.14,10.92,10.92,0,0,1,10,9.6,60.73,60.73,0,0,1,.23,6.48c0,1,0,2,0,3V46ZM430.85,66.93a4.56,4.56,0,0,0,2.24-4.39q0-16.41,0-32.82a6.1,6.1,0,0,0-.24-2c-.5-1.54-1.41-2.62-3.33-2.32-2.1,1.21-1.78,3.33-1.78,5.27q0,14.91,0,29.83a28.84,28.84,0,0,0,.11,3.48C428,65.62,428.7,66.87,430.85,66.93Z" transform="translate(-11.12 -16.87)"/><path class="cls-1" d="M447,18h7.82c.1,1.56.29,3,.29,4.42q0,19,0,38c0,2.48-.18,5.06,2.5,6.47,2.23-.13,2.89-1.65,3.15-3.36a26.5,26.5,0,0,0,.1-4q0-18,0-36V18.49c2.57-1.11,5-.56,7.72-.52a28.47,28.47,0,0,1,.41,3.41c0,13.66.07,27.33,0,41a18.32,18.32,0,0,1-1.16,6.31,9.72,9.72,0,0,1-8.73,6.46c-4.35.38-8-1.14-10.1-5a13.72,13.72,0,0,1-1.92-6.1C447,48.85,447,33.71,447,18Z" transform="translate(-11.12 -16.87)"/><path class="cls-1" d="M124.82,74.37c-3.52.16-3.52.16-5.51-1.89-.79.48-1.59,1-2.45,1.47-5.11,2.66-10.69.66-12.67-4.68a15.88,15.88,0,0,1-1-5.35c-.08-11.66-.09-23.31,0-35a16.26,16.26,0,0,1,1.35-5.77c1.69-4.15,5.21-6,9.45-6.2a10.14,10.14,0,0,1,9.9,6.27,14.51,14.51,0,0,1,1.16,4.32c.17,3.29,0,6.59,0,10.16-1.56.13-2.84.29-4.12.32-1.13,0-2.26-.1-3.87-.18,0-2.81-.09-5.42-.11-8,0-2.12-.37-4-3.36-4.63a9.35,9.35,0,0,0-1.78,2.44,15,15,0,0,0-.58,4.43c-.05,9.66-.08,19.32,0,29,0,2.42-.22,5.09,2.45,6.67,2.55-.3,3.24-2,3.25-4.22,0-3.15,0-6.31,0-9.56l-2.91-1.37V46.63c3.43-.92,6.88-.21,10.21-.46C125.37,49.71,125.65,66.56,124.82,74.37Z" transform="translate(-11.12 -16.87)"/><path class="cls-1" d="M540.51,18h10c2.83,18.81,5.64,37.46,8.5,56.43h-7.84c-.33-1.79-.72-3.68-1-5.59s-.45-3.59-.7-5.66h-7.95l-1.94,11.21h-7C531.94,70.65,537.54,30.87,540.51,18Zm5.3,18.58a59.51,59.51,0,0,0-3,17.5l5.31-.33C547.32,47.68,546.57,42.15,545.81,36.62Z" transform="translate(-11.12 -16.87)"/><path class="cls-1" d="M300.41,18.08H310.7c2.82,18.7,5.61,37.24,8.43,55.94-2.61,1.13-5,.58-7.84.58-.62-3.83-1.21-7.54-1.83-11.45h-7.84c-.58,3.68-1.17,7.38-1.79,11.28h-7.78c.48-6.34,1.76-12.45,2.7-18.6s1.8-12.52,2.74-18.77S299.4,24.61,300.41,18.08Zm5.51,17.77c-1.37,5.88-2.82,11.8-2.93,18.23l5.3-.24C307.47,47.59,306.7,41.72,305.92,35.85Z" transform="translate(-11.12 -16.87)"/><path class="cls-1" d="M387.43,32.06l-7.89.91c-.78-2.86-.05-5.84-2.42-7.73-2.08-.8-3.2.23-3.75,2.07a8.75,8.75,0,0,0,.57,6.8c1.25,2.35,2.64,4.63,4.06,6.87,2.05,3.24,4.24,6.38,6.26,9.63A21.47,21.47,0,0,1,387,65.53c-.87,5.88-4.58,9.3-10.35,9.66-6.2.38-10.59-2.43-12.08-8.15a56.19,56.19,0,0,1-.93-7.88c2.67-1.37,5.13-1.08,7.72-1,1.09,2.78,0,6.18,2.89,8.72l2.82.31c2.78-3,2.69-6.3,1.22-9.47A85.12,85.12,0,0,0,373.7,50c-2.39-4-5-7.86-7.1-12a16.41,16.41,0,0,1-.32-14.5c1.94-4.33,6-6.93,10.3-6.51,3.86.38,8.33,2.12,9.79,7.89A68.91,68.91,0,0,1,387.43,32.06Z" transform="translate(-11.12 -16.87)"/><path class="cls-1" d="M131.74,18H150.2v8.1h-10V40.72l7.23.69v8.36l-7.33.68V65.92h10.19v8.5H132.05C131.17,70.64,130.91,26,131.74,18Z" transform="translate(-11.12 -16.87)"/><path class="cls-1" d="M251.76,17.86V26.1H241.67a67.38,67.38,0,0,0-.11,14.68l7.17.53v8.52l-7.24.59a108.85,108.85,0,0,0,0,15.43h10.24v8.77c-6.11.13-12.16.17-18.46,0V18c3.18-.05,6.27-.11,9.37-.14C245.6,17.84,248.56,17.86,251.76,17.86Z" transform="translate(-11.12 -16.87)"/><path class="cls-1" d="M68.33,18H86.72V26l-10.17.44c-.59,4.76-.32,9.34-.17,14.34l7.1.56c1.17,2.63.23,5.41.66,8.47l-7.65.64a131.26,131.26,0,0,0-.13,15.52h10.1c.93,2.88.48,5.5.42,8.65-6.16.25-12.21.19-18.55,0Z" transform="translate(-11.12 -16.87)"/><path class="cls-1" d="M27.23,74.49H19.39c-.77-5.27-.24-10.56-.33-15.81s0-10.66,0-16V26.45l-7.92-.51V18c4,0,7.89-.11,11.82-.13s7.64,0,11.37,0c1,3.6,1,3.6.27,8.09l-7.06.55c-.6,5.45-.21,10.75-.28,16s0,10.33,0,15.49Z" transform="translate(-11.12 -16.87)"/><path class="cls-1" d="M206.59,18.34v7.55l-7.18.49c-1,3.91-.39,7.88-.49,11.79s0,8,0,12V74.37h-8.07V26.49L183,26V18.49C186.91,17.66,201.51,17.56,206.59,18.34Z" transform="translate(-11.12 -16.87)"/><path class="cls-1" d="M218.36,66.86h11v7.7c-6.38.23-12.59.27-19-.06V18.13h7.86C218.4,34.31,218.16,50.36,218.36,66.86Z" transform="translate(-11.12 -16.87)"/><path class="cls-1" d="M563.21,74.58V18.06h7.5c.78,3.8.28,7.77.37,11.69.08,4.16,0,8.32,0,12.49V66.3c3.5,1.47,7.08,0,10.71,1v7.24C575.62,74.8,569.43,74.78,563.21,74.58Z" transform="translate(-11.12 -16.87)"/><path class="cls-1" d="M401.24,75.36V67.78l3.83-1.93a54.48,54.48,0,0,0,.63-6c.07-12.15,0-24.31,0-36.46V18.14h7.92c.1,1.32.29,2.6.3,3.88q0,20.48,0,41c0,.5,0,1,0,1.5C413.72,71.91,409.47,75.68,401.24,75.36Z" transform="translate(-11.12 -16.87)"/><path class="cls-1" d="M360.08,18.05c1.06,6.75-.87,12.29-4,17.83l-3.61.18c.78-3.18,1.48-6,2.26-9.13l-2.34-1.53v-7C355.09,17.37,357.73,17.94,360.08,18.05Z" transform="translate(-11.12 -16.87)"/></svg>