<?xml version="1.0" encoding="utf-8"?>
<!-- Generator: Adobe Illustrator 19.0.0, SVG Export Plug-In . SVG Version: 6.00 Build 0)  -->
<svg version="1.1" id="Layer_1" xmlns="http://www.w3.org/2000/svg" xmlns:xlink="http://www.w3.org/1999/xlink" x="0px" y="0px"
	 viewBox="934 -231.5 2480 1271.7" style="enable-background:new 934 -231.5 2480 1271.7;" xml:space="preserve">
<style type="text/css">
	.st0{display:none;fill:#FFFFFF;}
	.st1{fill:#7E7F7F;}
</style>
<g>
	<polygon class="st0" points="2077,300 2269.8,300 2269.8,492.8 2077,492.8 	"/>
	<path class="st1" d="M2730.5-199.6c328.2,0,595.9,267.7,595.9,595.9c0,123.8-38.1,239-103.2,334.5L3394,955.4h-364.9l-23.4-30.8
		c-82.4,43.2-176,67.6-275.2,67.6c-302,0-552.8-226.7-590.9-518.7c-38.1,291.9-288.9,518.7-590.9,518.7
		c-328.2,0-595.9-267.7-595.9-595.9s267.7-595.9,595.9-595.9c262.8,0,486.7,171.6,565.6,408.4h-370
		c-49.4-51.5-118.9-83.7-195.6-83.7c-149.4,0-271.2,121.8-271.2,271.2s121.8,271.2,271.2,271.2c81.6,0,155-36.4,204.8-93.7h-168V306
		h218.8h172.9h160.5c0.7,4.3,1.3,8.7,1.9,13C2177.7,27.1,2428.5-199.6,2730.5-199.6L2730.5-199.6z M2616.7,413.1h364.9l17.2,22.6
		c1.9-12.9,2.9-26,2.9-39.4c0-149.4-121.8-271.2-271.2-271.2s-271.2,121.8-271.2,271.2s121.8,271.2,271.2,271.2
		c25,0,49.2-3.4,72.2-9.8L2616.7,413.1L2616.7,413.1z"/>
</g>
</svg>
