<?xml version="1.0" encoding="utf-8"?>
<!-- Generator: Adobe Illustrator 22.1.0, SVG Export Plug-In . SVG Version: 6.00 Build 0)  -->
<svg version="1.1" id="Layer_1" xmlns="http://www.w3.org/2000/svg" xmlns:xlink="http://www.w3.org/1999/xlink" x="0px" y="0px"
	 viewBox="0 0 136.2 30.6" style="enable-background:new 0 0 136.2 30.6;" xml:space="preserve">
<style type="text/css">
	.st0{fill:#898989;}
</style>
<g>
	<path class="st0" d="M99.6,23c-0.9,2.2-1.8,4.1-2.6,6c-0.3,0.7-0.6,1-1.5,1c-2.8-0.1-5.7,0-8.7,0c0.3-0.6,0.6-1,0.8-1.5
		c2.4-4.2,4.8-8.4,7.2-12.6c0.4-0.7,0.4-1.2,0-1.8C92.6,10.1,90.3,6.1,88,2c-0.2-0.4-0.4-0.8-0.7-1.3c3.1,0,6,0,9,0
		c0.3,0,0.7,0.5,0.8,0.8C98,3.3,98.7,5,99.6,7c0.9-1.9,1.7-3.6,2.4-5.4c0.3-0.7,0.7-1,1.5-1c5.4,0,10.8,0,16.2,0
		c0.8,0,1.1,0.2,1.4,0.9c0.7,1.8,1.5,3.5,2.4,5.4c0.9-1.9,1.7-3.8,2.5-5.5c0.1-0.3,0.5-0.8,0.7-0.8c2.9-0.1,5.9,0,9,0
		c-0.3,0.6-0.4,1-0.7,1.3c-2.2,4-4.5,8.1-6.8,12.1c-0.4,0.7-0.4,1.2,0,2c2.4,4.2,4.8,8.4,7.2,12.6c0.2,0.4,0.4,0.8,0.7,1.4
		c-1.3,0-2.5,0-3.7,0c-1.7,0-3.4,0-5,0c-0.7,0-1-0.2-1.3-0.8c-0.9-2-1.8-4.1-2.7-6.2c-0.9,2.2-1.8,4.2-2.6,6.2
		c-0.2,0.6-0.6,0.8-1.2,0.8c-5.4,0-10.7,0-16.1,0c-0.7,0-1-0.3-1.2-0.9C101.5,27.2,100.6,25.2,99.6,23z M111.6,1.4
		c-2.5,4.5-4.9,8.8-7.3,13.1c-0.2,0.3-0.2,0.8-0.1,1.1c2.4,4.3,4.8,8.6,7.3,12.9c0.1-0.1,0.2-0.1,0.3-0.2c2.4-4.2,4.9-8.4,7.2-12.6
		c0.1-0.2,0.2-0.7,0-1C116.6,10.3,114.1,5.9,111.6,1.4z"/>
	<path class="st0" d="M60.9,17.2c1.8,4.2,3.5,8.4,5.4,12.9c-0.8,0-1.5,0-2.1,0c-1.9,0-3.8-0.1-5.8,0c-1,0-1.5-0.2-1.8-1.2
		c-1-3.3-2.2-6.5-3.2-9.8C52.8,17,53.4,15,55,13.4c0.6-0.6,1.3-1.4,1.5-2.2c0.7-2.4-0.5-3.7-3.4-3.9c0,7.5,0,15.1,0,22.6
		c-2.9,0-5.6,0-8.4,0c0-0.4-0.1-0.9-0.1-1.3c0-7.5,0-15,0-22.6c0-0.3,0-0.6,0-0.8c0.2-3.4,1.5-4.6,4.9-4.6c2.9,0,5.9-0.1,8.7,0.3
		c3.7,0.5,6.1,2.7,6.9,6.3c0.8,3.8-0.4,6.9-3.6,9.2c-0.2,0.1-0.4,0.3-0.6,0.4C61,17,61,17,60.9,17.2z"/>
	<path class="st0" d="M89.1,15.4c0,3-0.4,6-1.7,8.7c-1.9,4-4.9,6.4-9.5,6.5c-4.6,0.1-8.1-2-10-6.2c-3-6.9-3.2-13.9,1.3-20.3
		C73.6-2,83.1-1.1,86.8,5.4C88.6,8.5,89.1,11.9,89.1,15.4z M75.5,21c0.2,1,0.9,2,2.1,2c1.2,0,1.8-0.9,2.2-1.9
		c0.1-0.4,0.3-0.8,0.3-1.1c0.1-2.8,0.3-5.6,0.2-8.3c0-1.1-0.5-2.2-1.1-3.1c-0.8-1.3-2.4-1.3-3.2,0c-0.3,0.5-0.6,1-0.7,1.5
		C75,11.7,75,19.1,75.5,21z"/>
	<path class="st0" d="M0,0.8c2.8,0,5.5,0,8.4,0c0,0.5,0,0.9,0,1.4c0,5.6,0,11.2,0,16.8c0,0.8,0.1,1.5,0.2,2.3c0.2,1,0.8,1.5,1.8,1.6
		c1.1,0,1.8-0.5,2-1.5c0.2-0.7,0.2-1.5,0.2-2.3c0-5.6,0-11.2,0-16.8c0-0.5,0-0.9,0-1.5c2.8,0,5.5,0,8.4,0c0,0.4,0,0.9,0,1.3
		c0,6.2-0.1,12.3,0,18.5c0.1,6.7-5,9.9-9.7,10.1c-3.1,0.1-6-0.5-8.5-2.6c-1.9-1.7-2.9-3.8-3-6.3C0,14.7,0,7.8,0,0.8z"/>
	<path class="st0" d="M31.3,30c-2.9,0-5.6,0-8.5,0c0-0.5,0-0.9,0-1.3c0-7.5,0-15,0-22.5c0-0.8,0.1-1.6,0.2-2.4
		c0.3-1.6,1.5-2.9,3.2-3c3.1-0.1,6.4-0.3,9.4,0.2c6.9,1.2,10.2,9.1,6.5,15c-1.9,3.1-5.1,4.1-8.5,4.4c-0.7,0.1-1.5,0-2.4,0
		C31.3,23.7,31.3,26.8,31.3,30z M31.3,7.4c0,2.1,0,4.2,0,6.3c2.4,0,3.7-1.1,3.6-3.2C34.9,8.3,33.7,7.3,31.3,7.4z"/>
</g>
</svg>
